<svg width="25" height="24" viewBox="0 0 25 24" fill="none" xmlns="http://www.w3.org/2000/svg">
<path d="M13.0409 6.45355C13.1612 7.78885 13.3115 9.6545 13.3115 10.6363C13.3115 10.6363 16.1358 11.2455 18.7641 12.3021C20.0594 12.8229 20.8263 14.1135 20.6376 15.4968C20.4893 16.5834 20.2077 18.0073 19.6747 19.6379C19.1926 21.1127 17.9147 22.1674 16.3729 22.3417C15.5812 22.4312 14.6396 22.5 13.616 22.5C12.4565 22.5 11.421 22.4117 10.5932 22.3051C9.2434 22.1312 8.01855 21.4347 7.39535 20.2248C6.8768 19.2181 6.3092 17.7338 5.98055 15.6842C5.83415 14.7711 6.19475 13.8604 6.8703 13.2288L8.2991 11.8928C8.2991 9.22235 8.3645 7.46335 8.42885 6.37865C8.4828 5.46945 9.0821 4.68449 9.9838 4.55603C10.222 4.5221 10.7233 4.5 10.7233 4.5C10.7233 4.5 11.1722 4.51772 11.3877 4.54579C12.3304 4.66854 12.9556 5.5068 13.0409 6.45355Z" stroke="#6D6D6D" stroke-width="2" stroke-linecap="round" stroke-linejoin="round"/>
<path d="M16.2998 7C16.2998 3.96244 13.8374 1.5 10.7998 1.5C7.76225 1.5 5.2998 3.96244 5.2998 7" stroke="#6D6D6D" stroke-width="2" stroke-linecap="round" stroke-linejoin="round"/>
</svg>
