<svg width="25" height="24" viewBox="0 0 25 24" fill="none" xmlns="http://www.w3.org/2000/svg">
<g clip-path="url(#clip0_468_1638)">
<path d="M20.2001 7.3401L17.4601 4.6001C17.1025 4.2642 16.6339 4.07146 16.1434 4.05855C15.653 4.04565 15.1749 4.21347 14.8001 4.5301L5.8001 13.5301C5.47687 13.8561 5.27561 14.2833 5.2301 14.7401L4.8001 18.9101C4.78663 19.0566 4.80564 19.2042 4.85576 19.3425C4.90589 19.4808 4.9859 19.6063 5.0901 19.7101C5.18354 19.8028 5.29436 19.8761 5.4162 19.9259C5.53803 19.9756 5.66849 20.0009 5.8001 20.0001H5.8901L10.0601 19.6201C10.5169 19.5746 10.9441 19.3733 11.2701 19.0501L20.2701 10.0501C20.6194 9.68107 20.8082 9.18861 20.7951 8.68064C20.782 8.17266 20.568 7.69061 20.2001 7.3401ZM16.8001 10.6801L14.1201 8.0001L16.0701 6.0001L18.8001 8.7301L16.8001 10.6801Z" fill="#6D6D6D"/>
</g>
<defs>
<clipPath id="clip0_468_1638">
<rect width="24" height="24" fill="white" transform="translate(0.799805)"/>
</clipPath>
</defs>
</svg>
