<svg width="25" height="24" viewBox="0 0 25 24" fill="none" xmlns="http://www.w3.org/2000/svg">
<mask id="mask0_905_3525" style="mask-type:alpha" maskUnits="userSpaceOnUse" x="0" y="0" width="25" height="24">
<rect x="0.799805" width="24" height="24" fill="#D9D9D9"/>
</mask>
<g mask="url(#mask0_905_3525)">
<path d="M12.8496 20.0027C10.6163 20.0027 8.71628 19.2277 7.14961 17.6777C5.58294 16.1277 4.79961 14.236 4.79961 12.0027V11.8277L3.89961 12.7277C3.71628 12.911 3.48294 13.0027 3.19961 13.0027C2.91628 13.0027 2.68294 12.911 2.49961 12.7277C2.31628 12.5444 2.22461 12.311 2.22461 12.0277C2.22461 11.7444 2.31628 11.511 2.49961 11.3277L5.09961 8.72769C5.29961 8.52769 5.53294 8.42769 5.79961 8.42769C6.06628 8.42769 6.29961 8.52769 6.49961 8.72769L9.09961 11.3277C9.28294 11.511 9.37461 11.7444 9.37461 12.0277C9.37461 12.311 9.28294 12.5444 9.09961 12.7277C8.91628 12.911 8.68294 13.0027 8.39961 13.0027C8.11628 13.0027 7.88294 12.911 7.69961 12.7277L6.79961 11.8277V12.0027C6.79961 13.6694 7.38711 15.086 8.56211 16.2527C9.73711 17.4194 11.1663 18.0027 12.8496 18.0027C13.1163 18.0027 13.3788 17.986 13.6371 17.9527C13.8954 17.9194 14.1496 17.861 14.3996 17.7777C14.6829 17.6944 14.9496 17.7027 15.1996 17.8027C15.4496 17.9027 15.6413 18.0777 15.7746 18.3277C15.9079 18.5944 15.9204 18.8569 15.8121 19.1152C15.7038 19.3735 15.5079 19.5444 15.2246 19.6277C14.8413 19.761 14.4496 19.8569 14.0496 19.9152C13.6496 19.9735 13.2496 20.0027 12.8496 20.0027ZM12.7496 6.00269C12.4829 6.00269 12.2204 6.01935 11.9621 6.05269C11.7038 6.08602 11.4496 6.14435 11.1996 6.22769C10.9163 6.31102 10.6454 6.30269 10.3871 6.20269C10.1288 6.10269 9.93294 5.92769 9.79961 5.67769C9.66628 5.42769 9.65378 5.17352 9.76211 4.91519C9.87044 4.65685 10.0579 4.48602 10.3246 4.40269C10.7246 4.26935 11.1246 4.16935 11.5246 4.10269C11.9246 4.03602 12.3329 4.00269 12.7496 4.00269C14.9829 4.00269 16.8829 4.77769 18.4496 6.32769C20.0163 7.87769 20.7996 9.76935 20.7996 12.0027V12.1777L21.6996 11.2777C21.8829 11.0944 22.1163 11.0027 22.3996 11.0027C22.6829 11.0027 22.9163 11.0944 23.0996 11.2777C23.2829 11.461 23.3746 11.6944 23.3746 11.9777C23.3746 12.261 23.2829 12.4944 23.0996 12.6777L20.4996 15.2777C20.2996 15.4777 20.0663 15.5777 19.7996 15.5777C19.5329 15.5777 19.2996 15.4777 19.0996 15.2777L16.4996 12.6777C16.3163 12.4944 16.2246 12.261 16.2246 11.9777C16.2246 11.6944 16.3163 11.461 16.4996 11.2777C16.6829 11.0944 16.9163 11.0027 17.1996 11.0027C17.4829 11.0027 17.7163 11.0944 17.8996 11.2777L18.7996 12.1777V12.0027C18.7996 10.336 18.2121 8.91935 17.0371 7.75269C15.8621 6.58602 14.4329 6.00269 12.7496 6.00269Z" fill="#6D6D6D"/>
</g>
</svg>
