<svg width="24" height="24" viewBox="0 0 24 24" fill="none" xmlns="http://www.w3.org/2000/svg">
<path d="M9.30431 14.5C9.30431 14.5 10.6168 16 12.8043 16C14.9918 16 16.3043 14.5 16.3043 14.5M15.5543 9.5H15.5643M10.0543 9.5H10.0643M12.8043 20.5C17.4987 20.5 21.3043 16.6944 21.3043 12C21.3043 7.30558 17.4987 3.5 12.8043 3.5C8.10989 3.5 4.30431 7.30558 4.30431 12C4.30431 12.95 4.46016 13.8636 4.74768 14.7166C4.85588 15.0376 4.90998 15.1981 4.91974 15.3214C4.92938 15.4432 4.92209 15.5286 4.89197 15.6469C4.86146 15.7668 4.79411 15.8915 4.65941 16.1408L3.02375 19.1684C2.79044 19.6002 2.67378 19.8161 2.69989 19.9828C2.72263 20.1279 2.80806 20.2557 2.93349 20.3322C3.07749 20.4201 3.32161 20.3948 3.80985 20.3444L8.93088 19.815C9.08596 19.799 9.1635 19.791 9.23417 19.7937C9.30369 19.7963 9.35276 19.8029 9.42054 19.8185C9.48947 19.8344 9.57613 19.8678 9.74947 19.9345C10.6975 20.2998 11.7275 20.5 12.8043 20.5ZM16.0543 9.5C16.0543 9.77614 15.8305 10 15.5543 10C15.2782 10 15.0543 9.77614 15.0543 9.5C15.0543 9.22386 15.2782 9 15.5543 9C15.8305 9 16.0543 9.22386 16.0543 9.5ZM10.5543 9.5C10.5543 9.77614 10.3305 10 10.0543 10C9.77817 10 9.55431 9.77614 9.55431 9.5C9.55431 9.22386 9.77817 9 10.0543 9C10.3305 9 10.5543 9.22386 10.5543 9.5Z" stroke="#6D6D6D" stroke-width="2" stroke-linecap="round" stroke-linejoin="round"/>
</svg>
