<svg width="24" height="24" viewBox="0 0 24 24" fill="none" xmlns="http://www.w3.org/2000/svg">
<path d="M16.1045 1.56946C18.0245 2.99546 20.708 6.92696 20.978 12.9985C21.006 13.627 20.7 14.2225 20.129 14.4875C19.7215 14.6765 19.1705 14.8915 18.4765 15.0745C18.354 15.1055 18.2471 15.1804 18.1761 15.285C18.1051 15.3896 18.075 15.5166 18.0915 15.642L18.7045 19.931C18.8745 21.1225 18.408 22.19 17.247 22.5095C16.162 22.8085 15 22.0875 15 20.9615V2.25296C15 1.61096 15.589 1.18696 16.1045 1.56946Z" stroke="#6D6D6D" stroke-width="2" stroke-linecap="round" stroke-linejoin="round"/>
<path d="M10.973 2.679C11.203 4.038 11.525 6.4125 11.499 8.948C11.4855 10.2565 10.6115 11.429 9.23749 11.737C8.95399 11.8005 8.65099 11.858 8.33499 11.9025L9.25699 19.8925C9.39699 21.1085 8.64399 22.301 7.43149 22.465C7.28856 22.486 7.14442 22.4977 6.99999 22.5C6.85571 22.4977 6.71174 22.486 6.56898 22.465C5.35649 22.301 4.60299 21.1085 4.74349 19.8925L5.66549 11.9025C5.36257 11.8596 5.0615 11.8045 4.76298 11.7375C3.38899 11.429 2.51498 10.256 2.50148 8.9475C2.47548 6.4125 2.79649 4.0385 3.02649 2.6795C3.14399 1.987 3.74999 1.5 4.45199 1.5H9.54748C10.25 1.5 10.856 1.9865 10.973 2.679Z" stroke="#6D6D6D" stroke-width="2" stroke-linecap="round" stroke-linejoin="round"/>
<path d="M5.75 1.5L5.5 7" stroke="#6D6D6D" stroke-width="2" stroke-linecap="round" stroke-linejoin="round"/>
<path d="M8.25 1.5L8.5 7" stroke="#6D6D6D" stroke-width="2" stroke-linecap="round" stroke-linejoin="round"/>
</svg>
