<svg width="25" height="24" viewBox="0 0 25 24" fill="none" xmlns="http://www.w3.org/2000/svg">
<g clip-path="url(#clip0_468_1633)">
<path d="M19.2698 4.93002C17.629 3.27852 15.4635 2.25124 13.1464 2.02526C10.8294 1.79929 8.50617 2.3888 6.57721 3.69215C4.64825 4.99551 3.23446 6.93103 2.57959 9.16503C1.92472 11.399 2.0698 13.7915 2.98983 15.93C3.08572 16.1288 3.11718 16.3525 3.07983 16.57L2.19983 20.8C2.16592 20.9622 2.17284 21.1303 2.21997 21.2891C2.2671 21.4479 2.35296 21.5926 2.46983 21.71C2.56563 21.8051 2.6797 21.8799 2.80516 21.9297C2.93062 21.9795 3.06487 22.0035 3.19983 22H3.39983L7.67983 21.14C7.89736 21.1139 8.11795 21.1449 8.31983 21.23C10.4583 22.15 12.8508 22.2951 15.0848 21.6403C17.3188 20.9854 19.2543 19.5716 20.5577 17.6426C21.861 15.7137 22.4506 13.3904 22.2246 11.0734C21.9986 8.75638 20.9713 6.59081 19.3198 4.95002L19.2698 4.93002ZM8.19983 13C8.00204 13 7.8087 12.9414 7.64426 12.8315C7.47981 12.7216 7.35163 12.5654 7.27595 12.3827C7.20026 12.2 7.18045 11.9989 7.21904 11.8049C7.25763 11.611 7.35287 11.4328 7.49272 11.2929C7.63257 11.1531 7.81075 11.0578 8.00473 11.0192C8.19872 10.9807 8.39978 11.0005 8.58251 11.0761C8.76523 11.1518 8.92141 11.28 9.03129 11.4445C9.14118 11.6089 9.19983 11.8022 9.19983 12C9.19983 12.2652 9.09447 12.5196 8.90693 12.7071C8.7194 12.8947 8.46504 13 8.19983 13ZM12.1998 13C12.002 13 11.8087 12.9414 11.6443 12.8315C11.4798 12.7216 11.3516 12.5654 11.2759 12.3827C11.2003 12.2 11.1805 11.9989 11.219 11.8049C11.2576 11.611 11.3529 11.4328 11.4927 11.2929C11.6326 11.1531 11.8108 11.0578 12.0047 11.0192C12.1987 10.9807 12.3998 11.0005 12.5825 11.0761C12.7652 11.1518 12.9214 11.28 13.0313 11.4445C13.1412 11.6089 13.1998 11.8022 13.1998 12C13.1998 12.2652 13.0945 12.5196 12.9069 12.7071C12.7194 12.8947 12.465 13 12.1998 13ZM16.1998 13C16.002 13 15.8087 12.9414 15.6443 12.8315C15.4798 12.7216 15.3516 12.5654 15.2759 12.3827C15.2003 12.2 15.1805 11.9989 15.219 11.8049C15.2576 11.611 15.3529 11.4328 15.4927 11.2929C15.6326 11.1531 15.8108 11.0578 16.0047 11.0192C16.1987 10.9807 16.3998 11.0005 16.5825 11.0761C16.7652 11.1518 16.9214 11.28 17.0313 11.4445C17.1412 11.6089 17.1998 11.8022 17.1998 12C17.1998 12.2652 17.0945 12.5196 16.9069 12.7071C16.7194 12.8947 16.465 13 16.1998 13Z" fill="#6D6D6D"/>
</g>
<defs>
<clipPath id="clip0_468_1633">
<rect width="24" height="24" fill="white" transform="translate(0.200195)"/>
</clipPath>
</defs>
</svg>
