<svg width="25" height="24" viewBox="0 0 25 24" fill="none" xmlns="http://www.w3.org/2000/svg">
<g clip-path="url(#clip0_468_1627)">
<path d="M12.2002 11C12.9913 11 13.7647 10.7654 14.4225 10.3259C15.0803 9.88635 15.593 9.26164 15.8957 8.53074C16.1985 7.79983 16.2777 6.99556 16.1233 6.21964C15.969 5.44372 15.588 4.73098 15.0286 4.17157C14.4692 3.61216 13.7565 3.2312 12.9806 3.07686C12.2046 2.92252 11.4004 3.00173 10.6695 3.30448C9.93856 3.60723 9.31384 4.11992 8.87432 4.77772C8.43479 5.43552 8.2002 6.20888 8.2002 7C8.2002 8.06087 8.62162 9.07828 9.37177 9.82843C10.1219 10.5786 11.1393 11 12.2002 11Z" fill="#6D6D6D"/>
<path d="M18.2002 21C18.4654 21 18.7198 20.8946 18.9073 20.7071C19.0948 20.5196 19.2002 20.2652 19.2002 20C19.2002 18.1435 18.4627 16.363 17.1499 15.0503C15.8372 13.7375 14.0567 13 12.2002 13C10.3437 13 8.5632 13.7375 7.25045 15.0503C5.93769 16.363 5.2002 18.1435 5.2002 20C5.2002 20.2652 5.30555 20.5196 5.49309 20.7071C5.68063 20.8946 5.93498 21 6.2002 21H18.2002Z" fill="#6D6D6D"/>
</g>
<defs>
<clipPath id="clip0_468_1627">
<rect width="24" height="24" fill="white" transform="translate(0.200195)"/>
</clipPath>
</defs>
</svg>
