<svg width="165" height="80" viewBox="0 0 165 80" fill="none" xmlns="http://www.w3.org/2000/svg">
<path d="M162.05 32.2553C164.502 32.8894 165.305 34.7917 164.671 37.0323C163.995 39.3996 162.431 40.1183 159.937 39.5687C155.075 38.4696 150.552 36.2713 146.705 33.2699C141.59 37.0745 135.333 39.4419 129.034 39.9915C127.977 40.076 127.259 39.5265 127.132 38.5964C127.005 37.6664 127.174 36.7786 128.231 36.4404C134.234 34.5381 138.715 32.2553 142.266 29.127C139.983 26.6328 138.165 23.8004 136.813 20.8412C136.643 20.4607 136.601 20.0803 136.686 19.6998C134.361 21.4331 131.74 22.9972 129.837 23.6313C128.907 23.9272 128.189 23.7581 127.766 22.9549C127.343 22.194 127.47 21.3062 128.315 20.6721C131.317 18.4316 134.149 15.3033 136.221 11.7522C136.474 11.3295 136.77 10.949 137.108 10.6954H129.753C128.485 10.6954 127.766 9.89218 127.766 8.49713C127.766 7.10208 128.485 6.29887 129.753 6.29887H142.266V2.7901C142.266 1.05686 143.703 0 145.902 0C148.1 0 149.537 1.05686 149.537 2.7901V6.29887H162.093C163.361 6.29887 164.079 7.10208 164.079 8.49713C164.079 9.89218 163.361 10.6954 162.093 10.6954H152.877C155.836 11.9636 159.598 14.1619 162.642 16.6561C164.544 18.2202 164.502 20.2494 163.023 21.8135C161.416 23.4622 159.429 23.2509 158.246 21.729C155.667 18.347 152.877 15.5569 150.34 13.2741C149.495 12.5555 149.622 11.7522 150.044 11.0759C150.129 10.9068 150.213 10.7799 150.298 10.6954H140.744C140.786 10.6954 140.786 10.7377 140.829 10.7377C142.689 11.9213 142.815 13.6969 141.505 15.3456C140.786 16.2333 139.729 17.2479 138.546 18.2625C139.053 18.2625 139.56 18.5161 139.983 18.9811C142.097 21.5176 143.957 23.5045 145.944 25.1109C147.127 23.4622 148.227 21.6444 149.241 19.573C150.171 17.6284 152.285 17.2056 154.06 18.1357C156.047 19.1502 156.681 20.7989 155.54 22.9972C154.441 25.0686 153.13 27.0133 151.609 28.7465C154.483 30.0993 157.781 31.1561 162.05 32.2553Z" fill="#FB923C"/>
<path d="M122.608 34.3698C122.735 37.329 121.171 38.0899 118.592 38.3859C115.548 38.7241 111.575 38.7241 108.319 38.4704C98.5541 37.7095 95.1721 29.001 93.9039 29.001C92.678 29.001 92.0016 31.8756 91.2406 36.2722C90.8179 38.7241 88.9578 39.485 86.9287 38.8086C84.7304 38.0477 84.4345 36.399 85.3222 34.3275C87.9855 28.0709 90.7756 24.9849 93.143 24.9849C94.5803 24.9849 95.764 25.915 97.0745 27.0986C102.824 23.4208 108.531 18.3056 111.659 12.9368C111.87 12.5986 111.701 12.3449 111.321 12.3449H88.1123C86.7596 12.3449 85.9986 11.584 85.9986 10.2312C85.9986 8.87842 86.7596 8.11748 88.1123 8.11748H98.7232V3.29822C98.7232 1.26905 100.034 0.169922 102.401 0.169922C104.768 0.169922 106.079 1.22678 106.079 3.29822V8.11748H112.166C113.688 6.59561 116.225 6.25742 118.169 7.52565C120.283 8.9207 120.579 11.4994 119.226 13.6554C114.957 20.4616 107.178 26.2954 100.118 29.5505C102.021 30.8188 104.472 31.9179 108.066 31.9602C111.575 32.0025 115.633 31.6643 118.719 31.1992C120.917 30.861 122.481 31.7065 122.608 34.3698Z" fill="#FB923C"/>
<path d="M78.8967 34.0731C80.2495 35.0454 80.8413 36.6518 79.6999 38.2583C78.5585 39.8647 76.8675 40.1183 75.2188 38.7233C73.6547 37.4128 72.2174 35.8064 70.9069 33.9886C68.6663 36.525 66.0453 38.5542 63.2552 39.7379C62.3675 40.1183 61.6488 39.7379 61.2683 39.0192C60.8879 38.2583 61.057 37.6664 61.8602 37.0323C64.4812 34.9186 66.7217 32.509 68.4972 29.8457C67.1867 27.1401 66.2144 24.0541 65.7071 20.5876C65.3267 28.2393 63.8893 34.369 60.0001 38.8078C59.366 39.5265 58.5205 39.5688 57.8441 39.0192C57.1677 38.4696 57.0409 37.751 57.4636 36.9478L57.9709 35.9332C56.7027 36.3982 55.6881 35.8064 55.1808 34.2422L55.1386 34.0731C52.3062 36.0177 49.2624 37.4128 46.8528 38.1737C44.9927 38.7656 43.5131 38.2583 43.0904 36.3982C42.6676 34.5804 43.2595 33.3544 45.3732 32.9317V16.1065C45.1618 16.2756 44.9505 16.4447 44.7391 16.5716C43.9359 17.1211 43.1327 17.0366 42.6254 16.3179C42.1181 15.6415 42.1604 14.9229 42.7522 14.2042C45.3309 11.0759 47.4869 7.18667 49.3893 2.07148C49.9811 0.54961 51.4184 0.0423174 53.2362 0.54961C54.8004 1.01463 55.4767 2.15603 55.1386 3.67791C56.9986 4.90386 58.7319 6.29891 60.0424 7.82078C60.0846 7.90533 60.1692 7.94761 60.2115 8.03216V4.48112C60.2115 2.91697 61.1838 2.02921 63.0016 2.02921C64.3966 2.02921 65.3267 2.49423 65.6649 3.46654C68.7931 2.79015 72.3865 1.77556 75.092 0.718707C76.4871 0.169141 78.0935 0.380512 78.6853 2.07148C79.3194 3.93155 78.4317 5.3266 76.7407 5.70707C73.8238 6.38346 69.8077 6.6371 65.7917 6.6371V12.3441H75.6839C78.2203 12.3441 79.2349 13.5701 78.939 16.1488C78.4317 20.6722 76.6984 25.4914 74.1197 29.6766C75.4725 31.3253 77.0789 32.7626 78.8967 34.0731ZM59.3237 31.9171C60.0424 28.6197 60.2115 24.2232 60.2115 16.2756V11.0336C60.0846 11.2027 59.9156 11.3295 59.7042 11.4986C58.3937 12.5132 57.0832 12.0482 56.1954 10.5263C55.4345 9.21583 54.6735 8.03216 53.7858 6.76393C53.5321 7.18667 53.2785 7.65169 52.9826 8.07443C53.7435 8.75082 54.4199 9.42721 54.9272 10.019C55.9418 11.2027 55.6881 12.2173 54.6313 12.9782H56.6182C58.3937 12.9782 59.366 13.9506 59.366 15.7261V23.9696C59.366 25.7451 58.3937 26.7174 56.6182 26.7174H50.9534V31.6635C52.0103 31.4098 53.0671 31.1139 54.0817 30.818C53.9549 30.3107 53.7858 29.8457 53.6167 29.3807C53.3208 28.5352 53.4053 27.8165 54.124 27.3938C54.8849 26.971 55.519 27.0556 56.1531 27.6897C57.3368 28.9156 58.4782 30.3952 59.3237 31.9171ZM50.9111 10.9914C50.3193 11.71 49.7275 12.3441 49.0933 12.9782H52.0525C51.8412 12.8091 51.6721 12.5555 51.5452 12.2596L50.9111 10.9914ZM68.0322 15.8106C68.6241 19.2771 69.6386 22.4054 71.076 25.111C72.2596 22.4054 73.0206 19.4885 73.3165 16.3602C73.3588 16.022 73.1474 15.8106 72.8092 15.8106H68.0322ZM50.9534 18.3048H54.2931V16.7829C54.2931 16.487 54.0817 16.2756 53.7858 16.2756H51.4607C51.1648 16.2756 50.9534 16.487 50.9534 16.7829V18.3048ZM50.9534 21.4331V23.42H53.7858C54.0817 23.42 54.2931 23.2086 54.2931 22.9127V21.4331H50.9534Z" fill="#FB923C"/>
<path d="M36.6225 34.0731C37.9753 35.0454 38.5672 36.6518 37.4257 38.2583C36.2843 39.8647 34.5934 40.1183 32.9447 38.7233C31.3805 37.4128 29.9432 35.8064 28.6327 33.9886C26.3922 36.525 23.7712 38.5542 20.981 39.7379C20.0933 40.1183 19.3746 39.7379 18.9942 39.0192C18.6137 38.2583 18.7828 37.6664 19.586 37.0323C22.207 34.9186 24.4475 32.509 26.2231 29.8457C24.9126 27.1401 23.9402 24.0541 23.433 20.5876C23.0525 28.2393 21.6152 34.369 17.7259 38.8078C17.0918 39.5265 16.2463 39.5688 15.5699 39.0192C14.8936 38.4696 14.7667 37.751 15.1895 36.9478L15.6968 35.9332C14.4285 36.3982 13.414 35.8064 12.9067 34.2422L12.8644 34.0731C10.032 36.0177 6.98826 37.4128 4.57863 38.1737C2.71856 38.7656 1.23896 38.2583 0.816219 36.3982C0.393476 34.5804 0.985316 33.3544 3.09903 32.9317V16.1065C2.88766 16.2756 2.67629 16.4447 2.46492 16.5716C1.6617 17.1211 0.858493 17.0366 0.351202 16.3179C-0.15609 15.6415 -0.113815 14.9229 0.478025 14.2042C3.05676 11.0759 5.21274 7.18667 7.11509 2.07148C7.70693 0.54961 9.14425 0.0423174 10.962 0.54961C12.5262 1.01463 13.2026 2.15603 12.8644 3.67791C14.7245 4.90386 16.4577 6.29891 17.7682 7.82078C17.8105 7.90533 17.895 7.94761 17.9373 8.03216V4.48112C17.9373 2.91697 18.9096 2.02921 20.7274 2.02921C22.1225 2.02921 23.0525 2.49423 23.3907 3.46654C26.519 2.79015 30.1123 1.77556 32.8178 0.718707C34.2129 0.169141 35.8193 0.380512 36.4112 2.07148C37.0453 3.93155 36.1575 5.3266 34.4665 5.70707C31.5496 6.38346 27.5336 6.6371 23.5175 6.6371V12.3441H33.4097C35.9461 12.3441 36.9607 13.5701 36.6648 16.1488C36.1575 20.6722 34.4243 25.4914 31.8455 29.6766C33.1983 31.3253 34.8047 32.7626 36.6225 34.0731ZM17.0495 31.9171C17.7682 28.6197 17.9373 24.2232 17.9373 16.2756V11.0336C17.8105 11.2027 17.6414 11.3295 17.43 11.4986C16.1195 12.5132 14.809 12.0482 13.9212 10.5263C13.1603 9.21583 12.3994 8.03216 11.5116 6.76393C11.258 7.18667 11.0043 7.65169 10.7084 8.07443C11.4693 8.75082 12.1457 9.42721 12.653 10.019C13.6676 11.2027 13.414 12.2173 12.3571 12.9782H14.344C16.1195 12.9782 17.0918 13.9506 17.0918 15.7261V23.9696C17.0918 25.7451 16.1195 26.7174 14.344 26.7174H8.67924V31.6635C9.73609 31.4098 10.7929 31.1139 11.8075 30.818C11.6807 30.3107 11.5116 29.8457 11.3425 29.3807C11.0466 28.5352 11.1311 27.8165 11.8498 27.3938C12.6107 26.971 13.2449 27.0556 13.879 27.6897C15.0626 28.9156 16.2041 30.3952 17.0495 31.9171ZM8.63696 10.9914C8.04512 11.71 7.45328 12.3441 6.81917 12.9782H9.77837C9.56699 12.8091 9.3979 12.5555 9.27107 12.2596L8.63696 10.9914ZM25.758 15.8106C26.3499 19.2771 27.3645 22.4054 28.8018 25.111C29.9855 22.4054 30.7464 19.4885 31.0423 16.3602C31.0846 16.022 30.8732 15.8106 30.535 15.8106H25.758ZM8.67924 18.3048H12.0189V16.7829C12.0189 16.487 11.8075 16.2756 11.5116 16.2756H9.18653C8.89061 16.2756 8.67924 16.487 8.67924 16.7829V18.3048ZM8.67924 21.4331V23.42H11.5116C11.8075 23.42 12.0189 23.2086 12.0189 22.9127V21.4331H8.67924Z" fill="#FB923C"/>
<path d="M131.95 55.6895C135.461 55.6895 138.792 57.7482 138.792 63.9242C138.792 69.0709 136.128 72.3406 131.98 72.3406C129.83 72.3406 128.771 71.4021 128.165 70.7663V77.4873C128.165 79.1827 127.287 80.0001 125.562 80.0001C123.927 80.0001 123.019 79.1222 123.019 77.4268V58.0812C123.019 56.5674 123.866 55.6895 125.38 55.6895C126.712 55.6895 127.651 56.3858 127.863 57.5968C128.892 56.4766 130.315 55.6895 131.95 55.6895ZM130.92 68.9196C132.858 68.9196 133.887 67.2242 133.887 63.8637C133.887 60.8665 132.646 59.0802 130.587 59.0802C129.407 59.0802 128.498 59.8977 127.893 61.0784V66.7095C128.226 67.6177 129.073 68.9196 130.92 68.9196Z" fill="#FB923C"/>
<path d="M115.962 53.843C114.297 53.843 112.905 52.5715 112.905 50.9367C112.905 49.2413 114.267 48 115.962 48C117.688 48 118.899 49.211 118.899 50.9367C118.899 52.6018 117.658 53.843 115.962 53.843ZM115.902 72.341C114.206 72.341 113.328 71.463 113.328 69.8282V58.5054C113.328 56.8705 114.206 55.9926 115.902 55.9926C117.597 55.9926 118.475 56.8705 118.475 58.5054V69.8282C118.475 71.463 117.597 72.341 115.902 72.341Z" fill="#FB923C"/>
<path d="M103.553 55.6888C106.944 55.6888 109.093 58.0503 109.093 61.7135V69.9483C109.093 71.5528 108.246 72.34 106.581 72.34C104.916 72.34 104.068 71.5528 104.068 69.9483V61.9254C104.068 60.23 103.371 59.3218 102.009 59.3218C100.586 59.3218 99.678 60.1998 99.1028 61.7438V69.9483C99.1028 71.5528 98.1945 72.34 96.5294 72.34C94.8643 72.34 93.9561 71.5528 93.9561 69.9483V50.7237C93.9561 49.0889 94.834 48.2715 96.5294 48.2715C98.2248 48.2715 99.1028 49.0889 99.1028 50.7237V57.8686C100.041 56.4457 101.555 55.6888 103.553 55.6888Z" fill="#FB923C"/>
<path d="M77.9717 68.1324C78.4863 67.4966 79.334 67.3755 80.1212 67.8599C81.0294 68.4049 82.3312 68.9498 83.6633 68.9498C84.9954 68.9498 85.6312 68.6168 85.6312 67.8297C85.6312 67.0728 85.2982 66.5581 82.6945 65.4077C79.6065 64.0453 78.0019 62.7738 78.0019 60.2912C78.0019 57.5665 80.6358 55.6895 84.511 55.6895C87.1146 55.6895 88.9008 56.5069 89.7788 57.2637C90.4751 57.8692 90.5962 58.7775 90.0816 59.4738C89.5669 60.1701 88.4467 60.3518 87.599 59.7463C86.8724 59.2316 85.9036 59.05 84.7835 59.05C83.633 59.05 83.0578 59.4738 83.0578 60.1096C83.0578 60.8362 83.6633 61.1995 85.9036 62.2288C89.4458 63.8334 90.8384 65.1655 90.8384 67.5572C90.8384 70.8269 87.7504 72.3406 84.511 72.3406C82.2101 72.3406 79.5157 71.7654 78.2139 70.4636C77.4873 69.737 77.3662 68.859 77.9717 68.1324Z" fill="#FB923C"/>
<path d="M69.0204 55.6895C72.6231 55.6895 74.8634 57.9903 74.8634 61.7141V69.8278C74.8634 71.4626 73.9552 72.3406 72.2901 72.3406C70.625 72.3406 69.7167 71.4626 69.7167 69.8278V62.1077C69.7167 60.2004 68.9296 59.05 67.537 59.05C66.2049 59.05 64.9939 60.261 64.6003 61.9563V69.8278C64.6003 71.4626 63.6921 72.3406 62.027 72.3406C60.3619 72.3406 59.4536 71.4626 59.4536 69.8278V58.0509C59.4536 56.5372 60.3013 55.7197 61.815 55.7197C63.3591 55.7197 64.2067 56.4766 64.2067 58.0206V58.505C65.115 56.6583 66.992 55.6895 69.0204 55.6895Z" fill="#FB923C"/>
<path d="M54.1605 57.6876C55.0687 58.6564 55.5229 60.0188 55.5229 61.7747V69.8278C55.5229 71.4626 54.8871 72.3406 53.3128 72.3406C51.7082 72.3406 50.9816 71.4626 50.9816 69.8278V69.737C49.9826 71.4929 48.1055 72.3406 45.7138 72.3406C42.5047 72.3406 40.5369 70.4636 40.5369 67.4664C40.5369 63.8637 43.8974 61.6233 48.9835 61.6233C49.589 61.6233 50.2248 61.6536 50.6183 61.7141V61.4417C50.6183 59.9279 49.7707 59.0197 48.1661 58.9591C46.8643 58.8986 45.4716 59.4738 44.3212 60.7151C43.5946 61.5022 42.535 61.6233 41.7781 60.9573C40.991 60.3215 40.9002 59.3224 41.5965 58.4445C42.6864 57.1124 45.0781 55.6895 48.2569 55.6895C51.0725 55.6895 52.8587 56.3252 54.1605 57.6876ZM50.6789 66.3462V64.8022C50.2853 64.7416 49.6193 64.6811 49.0441 64.7114C46.1377 64.8627 45.1386 65.9829 45.1992 67.1636C45.2597 68.193 45.8955 68.7985 47.1368 68.7985C48.5597 68.7985 49.9826 67.7994 50.6789 66.3462Z" fill="#FB923C"/>
<path d="M31.5671 53.1173C31.4158 53.1173 31.2947 53.2082 31.2947 53.3898V58.6879H37.289C38.3487 58.6879 38.9239 59.2934 38.9239 60.4136C38.9239 61.5337 38.3487 62.1392 37.289 62.1392H31.2947V69.708C31.2947 71.4336 30.3259 72.3419 28.691 72.3419C27.0259 72.3419 26.0874 71.4336 26.0874 69.708V52.1788C26.0874 50.5743 26.9654 49.666 28.5397 49.666H38.2276C39.2872 49.666 39.8624 50.2715 39.8624 51.3917C39.8624 52.5118 39.2872 53.1173 38.2276 53.1173H31.5671Z" fill="#FB923C"/>
</svg>
